 <svg  version="1.0" xmlns="http://www.w3.org/2000/svg"  width="300.000000pt" height="230.000000pt" viewBox="0 0 300.000000 230.000000"  preserveAspectRatio="xMidYMid meet">  <g transform="translate(0.000000,230.000000) scale(0.100000,-0.100000)" fill="#f4f0f0" stroke="none"> <path d="M1435 2189 c-200 -57 -632 -310 -781 -456 -90 -89 -109 -192 -109 -593 0 -399 19 -503 108 -591 142 -140 540 -376 757 -450 125 -42 208 -25 440 90 320 159 589 358 618 458 31 104 44 251 45 483 1 345 -24 503 -91 581 -107 125 -524 379 -758 462 -102 37 -147 40 -229 16z m178 -60 c252 -83 732 -382 787 -489 27 -53 40 -137 50 -332 9 -179 -1 -469 -20 -568 -17 -88 -45 -134 -118 -193 -251 -203 -702 -432 -811 -412 -203 37 -784 385 -848 508 -60 116 -71 731 -18 943 13 51 24 67 77 118 138 132 519 354 723 422 87 29 101 29 178 3z"/> <path d="M1439 2101 c-190 -61 -596 -300 -717 -423 -47 -49 -54 -61 -67 -126 -47 -224 -34 -788 20 -893 65 -125 653 -475 832 -495 61 -7 149 23 323 112 221 112 494 294 536 359 45 69 70 322 61 605 -11 296 -28 378 -95 442 -161 155 -685 439 -805 437 -18 0 -57 -8 -88 -18z m172 -38 c65 -20 330 -154 414 -208 253 -164 311 -212 333 -280 24 -76 34 -266 29 -520 -5 -256 -17 -346 -53 -400 -45 -69 -331 -256 -564 -368 -188 -91 -225 -99 -319 -71 -149 44 -508 247 -656 371 -82 69 -101 101 -116 208 -14 91 -18 498 -7 625 13 144 29 188 90 245 128 120 481 327 673 396 64 23 110 23 176 2z"/> <path d="M1121 1612 c-46 -23 -70 -59 -71 -107 -5 -169 2 -718 9 -748 19 -81 100 -124 168 -90 73 36 78 51 81 264 2 104 7 189 11 189 4 0 34 -33 67 -74 68 -85 101 -109 154 -109 49 0 83 24 136 98 56 80 71 92 77 68 3 -10 6 -94 6 -187 1 -149 3 -173 21 -201 46 -75 136 -80 200 -10 l25 27 3 389 c2 344 1 394 -14 424 -31 66 -115 94 -172 59 -27 -16 -172 -179 -241 -270 -20 -26 -41 -49 -47 -51 -6 -2 -61 58 -122 134 -136 170 -147 182 -188 199 -44 18 -62 18 -103 -4z m111 -42 c14 -11 87 -98 163 -194 l137 -174 67 88 c36 49 106 134 154 189 84 96 90 101 128 101 29 0 47 -7 64 -25 l25 -24 0 -390 0 -389 -26 -31 c-33 -40 -83 -43 -119 -6 -25 24 -25 27 -27 217 -2 106 -3 221 -3 256 0 34 -3 62 -6 62 -6 0 -22 -21 -121 -160 -121 -168 -142 -165 -303 42 -48 62 -90 114 -94 115 -3 2 -6 -112 -6 -253 l0 -256 -28 -24 c-46 -40 -116 -24 -137 30 -4 12 -10 197 -11 410 l-4 388 28 24 c35 30 85 31 119 4z"/> </g> </svg> 